<svg id="Layer_1" enable-background="new 0 0 512 512" height="512" viewBox="0 0 512 512" width="512" xmlns="http://www.w3.org/2000/svg"><g><g id="XMLID_57_"><g><g id="XMLID_1545_"><g id="XMLID_1546_"><g id="XMLID_1547_"><g id="XMLID_1548_"><g id="XMLID_1549_"><g id="XMLID_1550_"><g id="XMLID_1551_"><g id="XMLID_1552_"><g id="XMLID_1553_"><g id="XMLID_1554_"><g id="XMLID_1555_"><g id="XMLID_1556_"><g id="XMLID_1557_"><g id="XMLID_1558_"><circle cx="256" cy="256" fill="#5eefee" r="256"/></g></g></g></g></g></g></g></g></g></g></g></g></g></g></g></g><path d="m512 256c0-2.547-.048-5.083-.122-7.612l-82.044-82.044s-21.703-18.679-39.584-24.844l-99.802-102.5-146.854 387.749 83.633 83.633c9.447 1.056 19.044 1.618 28.773 1.618 141.385 0 256-114.615 256-256z" fill="#54c9fc"/><g><path d="m221.55 39 13.861 128.517h41.176l13.861-128.517z" fill="#776d6b"/><path d="m290.449 39-12.09 112.15-1.77 16.37h-20.59v-128.52z" fill="#57555c"/><path d="m357.688 130.246c-25.616-4.215-47.923 3.659-65.238 14.288-22.415 13.76-50.489 13.76-72.903 0-17.314-10.629-39.622-18.503-65.238-14.288-61.533 10.126-116.557 52.249-84.179 154.127 29.286 92.15 69.646 188.678 168.509 165 11.424-2.736 23.294-2.736 34.718 0 98.863 23.678 139.224-72.85 168.509-165 32.379-101.878-22.645-144.001-84.178-154.127z" fill="#ff807d"/><path d="m441.869 284.37c-29.29 92.15-69.65 188.68-168.51 165-5.72-1.37-11.54-2.05-17.36-2.05v-292.47c7.56 0 15.11-1.23 22.36-3.7 4.87-1.65 9.59-3.86 14.09-6.62 17.32-10.62 39.62-18.5 65.24-14.28 61.53 10.12 116.56 52.24 84.18 154.12z" fill="#fc3e53"/><g><g><g><path d="m367.529 246.28-24.32 21.42c-24.62-19.57-55.4-30.49-87.21-30.49-31.8 0-62.59 10.92-87.21 30.49l-24.32-21.42c30.93-26.31 70.54-41.07 111.53-41.07s80.6 14.76 111.53 41.07z" fill="#fff"/></g><g><g><path d="m367.529 246.28-24.32 21.42c-24.62-19.57-55.41-30.49-87.21-30.49v-32c40.98 0 80.6 14.76 111.53 41.07z" fill="#eae1dc"/></g></g><g><path d="m314.969 292.56-24.77 21.82c-10.28-6.23-21.95-9.49-34.2-9.49s-23.93 3.26-34.2 9.49l-24.78-21.82c16.93-12.7 37.77-19.67 58.98-19.67s42.05 6.96 58.97 19.67z" fill="#fff"/></g><g><path d="m314.979 292.55-24.78 21.83c-10.27-6.23-21.95-9.49-34.2-9.49v-32c21.21 0 42.05 6.97 58.98 19.66z" fill="#eae1dc"/></g></g><circle cx="255.999" cy="369.831" fill="#fff" r="29.169"/><path d="m285.169 369.83c0 16.11-13.06 29.17-29.17 29.17v-58.34c16.11 0 29.17 13.06 29.17 29.17z" fill="#eae1dc"/></g></g></g></svg>