<svg xmlns="http://www.w3.org/2000/svg" height="511pt" version="1.1" viewBox="1 0 511.99965 511" width="511pt">
<g id="surface1">
<path d="M 55.765625 325.289062 C 121.449219 390.976562 224.960938 399.636719 300.644531 345.777344 C 309.328125 339.660156 317.464844 332.804688 324.96875 325.289062 L 55.765625 56.03125 C -18.585938 130.382812 -18.589844 250.933594 55.765625 325.289062 Z M 55.765625 325.289062 " style=" stroke:none;fill-rule:nonzero;fill:rgb(81.960784%,82.745098%,83.137255%);fill-opacity:1;" />
<path d="M 325.023438 325.289062 C 332.539062 317.785156 339.394531 309.644531 345.511719 300.960938 C 406.300781 215.164062 386.023438 96.328125 300.222656 35.542969 C 224.609375 -18.03125 121.40625 -9.378906 55.765625 56.03125 Z M 325.023438 325.289062 " style=" stroke:none;fill-rule:nonzero;fill:rgb(90.196078%,90.588235%,90.980392%);fill-opacity:1;" />
<path d="M 300.644531 345.777344 L 467.128906 512.265625 L 489.566406 489.832031 L 325.023438 325.289062 C 317.503906 332.808594 309.34375 339.664062 300.644531 345.777344 Z M 300.644531 345.777344 " style=" stroke:none;fill-rule:nonzero;fill:rgb(57.647059%,58.431373%,59.607843%);fill-opacity:1;" />
<path d="M 325.023438 325.289062 L 489.566406 489.832031 L 512 467.398438 L 345.511719 300.910156 C 339.394531 309.59375 332.539062 317.730469 325.023438 325.238281 Z M 325.023438 325.289062 " style=" stroke:none;fill-rule:nonzero;fill:rgb(66.27451%,66.666667%,67.843137%);fill-opacity:1;" />
</g>
</svg>